<svg width="20" height="21" viewBox="0 0 20 21" fill="none" xmlns="http://www.w3.org/2000/svg">
<g id="graduate avatar laptop education">
<path id="Vector" d="M16.8571 11.4288C16.8571 11.3379 16.821 11.2507 16.7567 11.1864C16.6924 11.1221 16.6052 11.0859 16.5143 11.0859H3.48571C3.39478 11.0859 3.30757 11.1221 3.24327 11.1864C3.17898 11.2507 3.14285 11.3379 3.14285 11.4288V17.9431H16.8571V11.4288ZM10 15.8859C9.63627 15.8859 9.28744 15.7414 9.03025 15.4843C8.77306 15.2271 8.62857 14.8782 8.62857 14.5145C8.62857 14.1508 8.77306 13.802 9.03025 13.5448C9.28744 13.2876 9.63627 13.1431 10 13.1431V13.8288C9.86438 13.8288 9.7318 13.869 9.61903 13.9444C9.50627 14.0197 9.41838 14.1268 9.36648 14.2521C9.31458 14.3774 9.301 14.5153 9.32746 14.6483C9.35392 14.7813 9.41922 14.9035 9.51512 14.9994C9.61102 15.0953 9.7332 15.1606 9.86622 15.187C9.99924 15.2135 10.1371 15.1999 10.2624 15.148C10.3877 15.0961 10.4948 15.0082 10.5701 14.8955C10.6455 14.7827 10.6857 14.6501 10.6857 14.5145H11.3714C11.3714 14.8782 11.2269 15.2271 10.9697 15.4843C10.7126 15.7414 10.3637 15.8859 10 15.8859Z" fill="#B84DC5"/>
<path id="Vector_2" d="M10.0926 4.21484C10.0322 4.23313 9.96778 4.23313 9.90742 4.21484L7.14742 3.42627L6.95885 4.91427H13.0411L12.8526 3.42627L10.0926 4.21484Z" fill="#B84DC5"/>
<path id="Vector_3" d="M1.83314 19.3144C1.79323 19.2045 1.77235 19.0886 1.77143 18.9716V18.6287C1.77197 18.447 1.84439 18.2729 1.97287 18.1445C2.10135 18.016 2.27545 17.9436 2.45714 17.943V16.9487C2.20686 16.9999 1.97118 17.1064 1.76734 17.2604C1.5635 17.4144 1.39666 17.612 1.27901 17.8387C1.16135 18.0655 1.09587 18.3157 1.08734 18.571C1.07881 18.8263 1.12745 19.0803 1.22971 19.3144H1.83314Z" fill="#B84DC5"/>
<path id="Vector_4" d="M0.39999 20H19.6V20.6857H0.39999V20Z" fill="#B84DC5"/>
<path id="Vector_5" d="M18.2286 18.6287V18.9716C18.2276 19.0886 18.2068 19.2045 18.1669 19.3144H18.7703C18.8642 19.098 18.9132 18.8647 18.9143 18.6287C18.9133 18.2338 18.7764 17.8513 18.5267 17.5454C18.277 17.2395 17.9296 17.0288 17.5429 16.9487V17.943C17.7246 17.9436 17.8987 18.016 18.0271 18.1445C18.1556 18.2729 18.228 18.447 18.2286 18.6287Z" fill="#B84DC5"/>
<path id="Vector_6" d="M18.2286 14.1715C18.228 13.9588 18.1618 13.7516 18.0391 13.5779C17.9164 13.4043 17.7431 13.2727 17.5429 13.2012V16.256C17.7804 16.2901 18.0115 16.3594 18.2286 16.4617V14.1715Z" fill="#B84DC5"/>
<path id="Vector_7" d="M2.45713 13.2012C2.25689 13.2727 2.0836 13.4043 1.96088 13.5779C1.83817 13.7516 1.772 13.9588 1.77142 14.1715V16.4617C1.98847 16.3594 2.21959 16.2901 2.45713 16.256V13.2012Z" fill="#B84DC5"/>
<path id="Vector_8" d="M2.45712 18.9715C2.45712 19.0625 2.49325 19.1497 2.55754 19.214C2.62184 19.2783 2.70905 19.3144 2.79998 19.3144H17.2C17.2909 19.3144 17.3781 19.2783 17.4424 19.214C17.5067 19.1497 17.5428 19.0625 17.5428 18.9715V18.6287H2.45712V18.9715Z" fill="#B84DC5"/>
<path id="Vector_9" d="M8.06971 10.4001H11.9269C12.0169 10.3335 12.1017 10.2602 12.1806 10.1807C12.4681 9.89506 12.6961 9.55529 12.8515 9.18101C13.0068 8.80672 13.0864 8.40535 13.0857 8.0001V7.31438C13.2676 7.31438 13.442 7.24214 13.5706 7.11354C13.6992 6.98495 13.7714 6.81053 13.7714 6.62867C13.7714 6.44681 13.6992 6.27239 13.5706 6.1438C13.442 6.0152 13.2676 5.94295 13.0857 5.94295V5.6001H6.91428V5.94295C6.73242 5.94295 6.55801 6.0152 6.42941 6.1438C6.30081 6.27239 6.22857 6.44681 6.22857 6.62867C6.22857 6.81053 6.30081 6.98495 6.42941 7.11354C6.55801 7.24214 6.73242 7.31438 6.91428 7.31438V8.0001C6.91634 8.46087 7.02112 8.91539 7.221 9.33056C7.42087 9.74574 7.71082 10.1111 8.06971 10.4001ZM11.0286 6.97153C11.0286 6.88059 11.0647 6.79339 11.129 6.72909C11.1933 6.66479 11.2805 6.62867 11.3714 6.62867C11.4624 6.62867 11.5496 6.66479 11.6139 6.72909C11.6782 6.79339 11.7143 6.88059 11.7143 6.97153V7.65724C11.7143 7.74817 11.6782 7.83538 11.6139 7.89968C11.5496 7.96398 11.4624 8.0001 11.3714 8.0001C11.2805 8.0001 11.1933 7.96398 11.129 7.89968C11.0647 7.83538 11.0286 7.74817 11.0286 7.65724V6.97153ZM8.28571 6.97153C8.28571 6.88059 8.32183 6.79339 8.38613 6.72909C8.45043 6.66479 8.53764 6.62867 8.62857 6.62867C8.7195 6.62867 8.80671 6.66479 8.87101 6.72909C8.9353 6.79339 8.97143 6.88059 8.97143 6.97153V7.65724C8.97143 7.74817 8.9353 7.83538 8.87101 7.89968C8.80671 7.96398 8.7195 8.0001 8.62857 8.0001C8.53764 8.0001 8.45043 7.96398 8.38613 7.89968C8.32183 7.83538 8.28571 7.74817 8.28571 7.65724V6.97153ZM8.97143 9.02867C8.97143 9.11404 9.33623 9.37153 10 9.37153C10.6638 9.37153 11.0286 9.11404 11.0286 9.02867H11.7143C11.7143 9.61495 10.9775 10.0572 10 10.0572C9.02251 10.0572 8.28571 9.61495 8.28571 9.02867H8.97143Z" fill="#B84DC5"/>
<path id="Vector_10" d="M13.4286 2.68576V5.25719H14.1143V2.51433L9.99999 0.800049L5.8857 2.51433L9.99999 3.54291L13.4286 2.68576Z" fill="#B84DC5"/>
</g>
</svg>
