<svg width="20" height="20" viewBox="0 0 20 20" fill="none" xmlns="http://www.w3.org/2000/svg">
<g id="Contacts">
<path id="Vector" d="M13.0857 9.65716C13.8431 9.65716 14.4571 9.04315 14.4571 8.28574C14.4571 7.52832 13.8431 6.91431 13.0857 6.91431C12.3283 6.91431 11.7143 7.52832 11.7143 8.28574C11.7143 9.04315 12.3283 9.65716 13.0857 9.65716Z" fill="#23CEC9"/>
<path id="Vector_2" d="M19.6 1.42847C19.6 1.15568 19.4916 0.894059 19.2987 0.701164C19.1058 0.508269 18.8442 0.399902 18.5714 0.399902H6.57143V19.5999H18.5714C18.8442 19.5999 19.1058 19.4915 19.2987 19.2986C19.4916 19.1057 19.6 18.8441 19.6 18.5713V1.42847ZM13.0857 15.1428C12.0686 15.1428 11.0742 14.8411 10.2285 14.276C9.38276 13.7109 8.72358 12.9077 8.33433 11.968C7.94508 11.0283 7.84324 9.9942 8.04168 8.99658C8.24011 7.99896 8.72992 7.08259 9.44916 6.36335C10.1684 5.64411 11.0848 5.1543 12.0824 4.95586C13.08 4.75743 14.1141 4.85927 15.0538 5.24852C15.9935 5.63777 16.7967 6.29695 17.3618 7.14268C17.9269 7.98842 18.2286 8.98274 18.2286 9.9999C18.227 11.3634 17.6847 12.6706 16.7206 13.6347C15.7564 14.5989 14.4492 15.1412 13.0857 15.1428Z" fill="#23CEC9"/>
<path id="Vector_3" d="M13.0857 5.54285C12.239 5.54196 11.4096 5.78241 10.6947 6.23602C9.97983 6.68963 9.40901 7.33761 9.0492 8.10403C8.68938 8.87044 8.55546 9.72354 8.66313 10.5633C8.77081 11.4031 9.11561 12.1949 9.65715 12.8457V12.0571C9.658 11.5007 9.85192 10.9617 10.2058 10.5323C10.5597 10.1029 11.0517 9.80956 11.5977 9.70239C11.3196 9.41104 11.1331 9.04444 11.0614 8.64807C10.9897 8.2517 11.036 7.84301 11.1944 7.47269C11.3529 7.10237 11.6166 6.78671 11.9528 6.56488C12.289 6.34305 12.6829 6.22479 13.0857 6.22479C13.4885 6.22479 13.8824 6.34305 14.2187 6.56488C14.5549 6.78671 14.8185 7.10237 14.977 7.47269C15.1355 7.84301 15.1817 8.2517 15.11 8.64807C15.0383 9.04444 14.8518 9.41104 14.5737 9.70239C15.1198 9.80956 15.6117 10.1029 15.9656 10.5323C16.3195 10.9617 16.5134 11.5007 16.5143 12.0571V12.8457C17.0558 12.1949 17.4006 11.4031 17.5083 10.5633C17.616 9.72354 17.4821 8.87044 17.1222 8.10403C16.7624 7.33761 16.1916 6.68963 15.4767 6.23602C14.7618 5.78241 13.9324 5.54196 13.0857 5.54285Z" fill="#23CEC9"/>
<path id="Vector_4" d="M14.1143 10.3429H12.0571C11.6027 10.3434 11.1669 10.5242 10.8456 10.8456C10.5242 11.167 10.3434 11.6027 10.3429 12.0572V13.5061C11.1244 14.1221 12.0906 14.4572 13.0857 14.4572C14.0809 14.4572 15.047 14.1221 15.8286 13.5061V12.0572C15.828 11.6027 15.6472 11.167 15.3259 10.8456C15.0045 10.5242 14.5688 10.3434 14.1143 10.3429Z" fill="#23CEC9"/>
<path id="Vector_5" d="M3.82857 7.94292C3.82857 7.76105 3.75633 7.58664 3.62773 7.45804C3.49914 7.32945 3.32472 7.2572 3.14286 7.2572H1.08572C0.903853 7.2572 0.729439 7.32945 0.600843 7.45804C0.472246 7.58664 0.400002 7.76105 0.400002 7.94292C0.400002 8.12478 0.472246 8.29919 0.600843 8.42779C0.729439 8.55639 0.903853 8.62863 1.08572 8.62863H3.14286C3.32472 8.62863 3.49914 8.55639 3.62773 8.42779C3.75633 8.29919 3.82857 8.12478 3.82857 7.94292Z" fill="#23CEC9"/>
<path id="Vector_6" d="M2.45715 1.42847V2.45705H3.14286C3.50659 2.45705 3.85541 2.60153 4.11261 2.85873C4.3698 3.11592 4.51429 3.46475 4.51429 3.82847C4.51429 4.1922 4.3698 4.54103 4.11261 4.79822C3.85541 5.05541 3.50659 5.1999 3.14286 5.1999H2.45715V6.57133H3.14286C3.50659 6.57133 3.85541 6.71582 4.11261 6.97301C4.3698 7.23021 4.51429 7.57903 4.51429 7.94276C4.51429 8.30649 4.3698 8.65531 4.11261 8.91251C3.85541 9.1697 3.50659 9.31419 3.14286 9.31419H2.45715V11.0285H3.14286C3.50659 11.0285 3.85541 11.173 4.11261 11.4302C4.3698 11.6873 4.51429 12.0362 4.51429 12.3999C4.51429 12.7636 4.3698 13.1125 4.11261 13.3696C3.85541 13.6268 3.50659 13.7713 3.14286 13.7713H2.45715V15.1428H3.14286C3.50659 15.1428 3.85541 15.2872 4.11261 15.5444C4.3698 15.8016 4.51429 16.1505 4.51429 16.5142C4.51429 16.8779 4.3698 17.2267 4.11261 17.4839C3.85541 17.7411 3.50659 17.8856 3.14286 17.8856H2.45715V18.5713C2.45715 18.8441 2.56551 19.1057 2.75841 19.2986C2.9513 19.4915 3.21292 19.5999 3.48572 19.5999H5.88572V0.399902H3.48572C3.21292 0.399902 2.9513 0.508269 2.75841 0.701164C2.56551 0.894059 2.45715 1.15568 2.45715 1.42847Z" fill="#23CEC9"/>
<path id="Vector_7" d="M1.08572 4.51425H3.14286C3.32472 4.51425 3.49914 4.44201 3.62773 4.31341C3.75633 4.18481 3.82857 4.0104 3.82857 3.82854C3.82857 3.64667 3.75633 3.47226 3.62773 3.34366C3.49914 3.21507 3.32472 3.14282 3.14286 3.14282H1.08572C0.903853 3.14282 0.729439 3.21507 0.600843 3.34366C0.472246 3.47226 0.400002 3.64667 0.400002 3.82854C0.400002 4.0104 0.472246 4.18481 0.600843 4.31341C0.729439 4.44201 0.903853 4.51425 1.08572 4.51425Z" fill="#23CEC9"/>
<path id="Vector_8" d="M3.82857 12.4001C3.82857 12.2182 3.75633 12.0438 3.62773 11.9152C3.49914 11.7866 3.32472 11.7144 3.14286 11.7144H1.08572C0.903853 11.7144 0.729439 11.7866 0.600843 11.9152C0.472246 12.0438 0.400002 12.2182 0.400002 12.4001C0.400002 12.5819 0.472246 12.7563 0.600843 12.8849C0.729439 13.0135 0.903853 13.0858 1.08572 13.0858H3.14286C3.32472 13.0858 3.49914 13.0135 3.62773 12.8849C3.75633 12.7563 3.82857 12.5819 3.82857 12.4001Z" fill="#23CEC9"/>
<path id="Vector_9" d="M3.82857 16.5142C3.82857 16.3323 3.75633 16.1579 3.62773 16.0293C3.49914 15.9007 3.32472 15.8285 3.14286 15.8285H1.08572C0.903853 15.8285 0.729439 15.9007 0.600843 16.0293C0.472246 16.1579 0.400002 16.3323 0.400002 16.5142C0.400002 16.6961 0.472246 16.8705 0.600843 16.9991C0.729439 17.1277 0.903853 17.1999 1.08572 17.1999H3.14286C3.32472 17.1999 3.49914 17.1277 3.62773 16.9991C3.75633 16.8705 3.82857 16.6961 3.82857 16.5142Z" fill="#23CEC9"/>
</g>
</svg>
